{"title":"Mr.Robot.S01E10.HDTV.480p.x264.AAC-VYTO [P2PDL]","uid":12347713,"size":194431925,"categoryP":"video","categoryS":"hd___tv_shows","magnet":"?xt=urn:btih:265413931da8e4fbdc234900008716c2fdc772e8&amp;dn=Mr.Robot.S01E10.HDTV.480p.x264.AAC-VYTO+%5BP2PDL%5D&amp;tr=udp%3A%2F%2Ftracker.openbittorrent.com%3A80&amp;tr=udp%3A%2F%2Fopen.demonii.com%3A1337&amp;tr=udp%3A%2F%2Ftracker.coppersurfer.tk%3A6969&amp;tr=udp%3A%2F%2Fexodus.desync.com%3A6969","seeders":5,"leechers":0,"uploader":"ValidusVyto","files":6,"time":1441375565,"description":"____    ____ ____    ____ .___________.  ______   \n     /   /      /   / |           | /  __    \n    /   /      /   /  `---|  |----`|  |  |  | \n        /     _    _/       |  |     |  |  |  | \n       /        |  |         |  |     |  `--'  | \n    __/         |__|         |__|      ______/  \n                                                  \nPresenting Small Encodes with quality for years!\n                                                                                                   \n                                                                                                   \n\nMr.Robot.S01E10.HDTV.480p.x264.AAC-VYTO\n\n\nGeneral\nFormat                         : MPEG-4\nFile size                      : 181 MiB\nDuration                       : 54mn 0s\nOverall bit rate               : 468 Kbps\n\nVideo\nFormat                         : AVC\nBit rate                       : 433 Kbps\nWidth                          : 720 pixels\nHeight                         : 400 pixels\nDisplay aspect ratio           : 16:9\nFrame rate mode                : Constant\nFrame rate                     : 23.976 fps\nBit depth                      : 8 bits\nStream size                    : 167 MiB (92%)\nWriting library                : x264 core 148 r2597\n\nAudio\nFormat                         : AAC\nBit rate mode                  : Variable\nBit rate                       : 32.0 Kbps\nChannel(s)                     : 2 channels\nChannel positions              : Front: L R\nSampling rate                  : 48.0 KHz \nStream size                    : 12.4 MiB (7%)\n\n\nScreenshots:\n &lt;a href=&quot;\nhttp://ititli.com/VJ&quot; rel=&quot;nofollow&quot; target=&quot;_NEW&quot;&gt;\nhttp://ititli.com/VJ&lt;/a&gt; &lt;a href=&quot;\nhttp://ititli.com/V5&quot; rel=&quot;nofollow&quot; target=&quot;_NEW&quot;&gt;\nhttp://ititli.com/V5&lt;/a&gt; &lt;a href=&quot;\nhttp://ititli.com/VB&quot; rel=&quot;nofollow&quot; target=&quot;_NEW&quot;&gt;\nhttp://ititli.com/VB&lt;/a&gt; &lt;a href=&quot;\nhttp://ititli.com/VN&quot; rel=&quot;nofollow&quot; target=&quot;_NEW&quot;&gt;\nhttp://ititli.com/VN&lt;/a&gt; &lt;a href=&quot;\nhttp://ititli.com/VP&quot; rel=&quot;nofollow&quot; target=&quot;_NEW&quot;&gt;\nhttp://ititli.com/VP&lt;/a&gt; &lt;a href=&quot;\nhttp://ititli.com/Vf&quot; rel=&quot;nofollow&quot; target=&quot;_NEW&quot;&gt;\nhttp://ititli.com/Vf&lt;/a&gt; &lt;a href=&quot;\nhttp://ititli.com/Vu&quot; rel=&quot;nofollow&quot; target=&quot;_NEW&quot;&gt;\nhttp://ititli.com/Vu&lt;/a&gt; &lt;a href=&quot;\nhttp://ititli.com/Vv&quot; rel=&quot;nofollow&quot; target=&quot;_NEW&quot;&gt;\nhttp://ititli.com/Vv&lt;/a&gt; &lt;a href=&quot;\nhttp://ititli.com/VR&quot; rel=&quot;nofollow&quot; target=&quot;_NEW&quot;&gt;\nhttp://ititli.com/VR&lt;/a&gt; &lt;a href=&quot;\nhttp://ititli.com/Vy&quot; rel=&quot;nofollow&quot; target=&quot;_NEW&quot;&gt;\nhttp://ititli.com/Vy&lt;/a&gt; &lt;a href=&quot;\nhttp://ititli.com/V3&quot; rel=&quot;nofollow&quot; target=&quot;_NEW&quot;&gt;\nhttp://ititli.com/V3&lt;/a&gt; &lt;a href=&quot;\nhttp://ititli.com/VE&quot; rel=&quot;nofollow&quot; target=&quot;_NEW&quot;&gt;\nhttp://ititli.com/VE&lt;/a&gt; &lt;a href=&quot;\nhttp://ititli.com/VQ&quot; rel=&quot;nofollow&quot; target=&quot;_NEW&quot;&gt;\nhttp://ititli.com/VQ&lt;/a&gt; &lt;a href=&quot;\nhttp://ititli.com/VS&quot; rel=&quot;nofollow&quot; target=&quot;_NEW&quot;&gt;\nhttp://ititli.com/VS&lt;/a&gt; &lt;a href=&quot;\nhttp://ititli.com/VZ&quot; rel=&quot;nofollow&quot; target=&quot;_NEW&quot;&gt;\nhttp://ititli.com/VZ&lt;/a&gt;\n\n----------------------------------------------------------------------------------------------------\n\n\nEncoder Notes: Looking For Early Access To Anything You Can Provide DVDScr, R5, DVDR, BluRay, Direct\nAudio, Music Releases and Seedboxes. If You Got anything to offer please contact us.\n\nSupport us by donating BC - 1FgwdzPsd1y25Gea8wP1qni35uGCtmkRCD","torrent":{"xt":"urn:btih:265413931da8e4fbdc234900008716c2fdc772e8","amp;dn":"Mr.Robot.S01E10.HDTV.480p.x264.AAC-VYTO+%5BP2PDL%5D","amp;tr":["udp%3A%2F%2Ftracker.openbittorrent.com%3A80","udp%3A%2F%2Fopen.demonii.com%3A1337","udp%3A%2F%2Ftracker.coppersurfer.tk%3A6969","udp%3A%2F%2Fexodus.desync.com%3A6969"],"infoHash":"265413931da8e4fbdc234900008716c2fdc772e8","infoHashBuffer":{"type":"Buffer","data":[38,84,19,147,29,168,228,251,220,35,73,0,0,135,22,194,253,199,114,232]},"announce":[],"urlList":[]}}